<mxfile host="app.diagrams.net" modified="2023-06-06T14:30:06.682Z" agent="Mozilla/5.0 (Windows NT 10.0; Win64; x64) AppleWebKit/537.36 (KHTML, like Gecko) Chrome/114.0.0.0 Safari/537.36 Edg/114.0.1823.37" etag="F1LRpycfm3gfCxtY9tGv" version="21.3.7" type="device">
  <diagram name="Страница 1" id="5WubpqhYVPEtmWXUSMpR">
    <mxGraphModel dx="1379" dy="756" grid="1" gridSize="10" guides="1" tooltips="1" connect="1" arrows="1" fold="1" page="1" pageScale="1" pageWidth="827" pageHeight="1169" math="0" shadow="0">
      <root>
        <mxCell id="0" />
        <mxCell id="1" parent="0" />
        <mxCell id="3CyaGFI086CZrW1SGtfO-1" value="Компьютер&amp;nbsp;" style="verticalAlign=top;align=left;shape=cube;size=10;direction=south;fontStyle=0;html=1;boundedLbl=1;spacingLeft=5;whiteSpace=wrap;" vertex="1" parent="1">
          <mxGeometry x="120" y="270" width="210" height="220" as="geometry" />
        </mxCell>
        <mxCell id="3CyaGFI086CZrW1SGtfO-3" value="АРМ Заготовщика" style="shape=mxgraph.uml25.actionParams;html=1;align=center;verticalAlign=top;absoluteArcSize=1;arcSize=10;dashed=0;spacingLeft=10;spacingTop=5;whiteSpace=wrap;" vertex="1" parent="1">
          <mxGeometry x="140" y="390" width="150" height="50" as="geometry" />
        </mxCell>
        <mxCell id="3CyaGFI086CZrW1SGtfO-4" value="База данных MySql" style="verticalAlign=top;align=left;shape=cube;size=10;direction=south;fontStyle=0;html=1;boundedLbl=1;spacingLeft=5;whiteSpace=wrap;" vertex="1" parent="1">
          <mxGeometry x="320" y="40" width="130" height="140" as="geometry" />
        </mxCell>
        <mxCell id="3CyaGFI086CZrW1SGtfO-6" value="" style="endArrow=none;html=1;rounded=0;entryX=0;entryY=0;entryDx=140;entryDy=70;entryPerimeter=0;exitX=0;exitY=0;exitDx=0;exitDy=100;exitPerimeter=0;" edge="1" parent="1" source="3CyaGFI086CZrW1SGtfO-1" target="3CyaGFI086CZrW1SGtfO-4">
          <mxGeometry width="50" height="50" relative="1" as="geometry">
            <mxPoint x="390" y="410" as="sourcePoint" />
            <mxPoint x="440" y="360" as="targetPoint" />
          </mxGeometry>
        </mxCell>
      </root>
    </mxGraphModel>
  </diagram>
</mxfile>
